<svg xmlns="http://www.w3.org/2000/svg" viewBox="0 0 378.91 97.11"><defs><style>.cls-1{fill:#004e9c;}.cls-2{fill:#4d4d4d;}</style></defs><g id="Layer_2" data-name="Layer 2"><g id="Layer_1-2" data-name="Layer 1"><path class="cls-1" d="M100.39,66a33,33,0,0,1-11.76-2,28.15,28.15,0,0,1-9.32-5.73,26.1,26.1,0,0,1-6.18-8.82,27.88,27.88,0,0,1-2.22-11.22A27.89,27.89,0,0,1,73.13,27a25.79,25.79,0,0,1,6.22-8.82,28.35,28.35,0,0,1,9.43-5.73,36.89,36.89,0,0,1,25.44.5,25.25,25.25,0,0,1,9.85,7.25l-9.63,8.71a18.21,18.21,0,0,0-5.91-4.51,16.93,16.93,0,0,0-7.07-1.45A17.61,17.61,0,0,0,95.2,24a13,13,0,0,0-4.81,3.09,14.26,14.26,0,0,0-3.1,4.85,17.23,17.23,0,0,0-1.1,6.27,16.93,16.93,0,0,0,1.1,6.18,14.16,14.16,0,0,0,3.1,4.85,13.61,13.61,0,0,0,4.77,3.13,16.5,16.5,0,0,0,6.15,1.11,20,20,0,0,0,6.57-1.11,21.62,21.62,0,0,0,6.49-3.78l8.48,10.62a35.81,35.81,0,0,1-10.66,5A41.87,41.87,0,0,1,100.39,66Zm9-8.7V37h13.45V59.19Z" transform="translate(0 -5.04)"/><path class="cls-1" d="M157.14,66q-11.85,0-18.45-6.49t-6.6-18.33V11.46h15.12V40.71q0,6.8,2.67,9.77a9.43,9.43,0,0,0,7.41,3,9.33,9.33,0,0,0,7.37-3q2.63-3,2.63-9.77V11.46h15v29.7q0,11.85-6.68,18.33T157.14,66Z" transform="translate(0 -5.04)"/><path class="cls-1" d="M192.57,64.92V11.46h15.12V64.92Z" transform="translate(0 -5.04)"/><path class="cls-1" d="M229.76,64.92V23.45H213.34v-12h47.89v12H244.88V64.92Z" transform="translate(0 -5.04)"/><path class="cls-1" d="M260.46,64.92l23.6-53.46H299l23.67,53.46H306.9L288.42,18.86h5.95L275.89,64.92Zm12.91-10.47,3.9-11.07h26.12l3.89,11.07Z" transform="translate(0 -5.04)"/><path class="cls-1" d="M326.91,64.92V11.46h24.36A31.29,31.29,0,0,1,364,13.82a18.24,18.24,0,0,1,8.21,6.84A19,19,0,0,1,375,31.16a18.75,18.75,0,0,1-2.86,10.54A18.26,18.26,0,0,1,364,48.38a31.65,31.65,0,0,1-12.68,2.33h-16l6.8-6.42V64.92ZM342,46.05l-6.8-7h15.12c3.16,0,5.53-.68,7.11-2.06a7.3,7.3,0,0,0,2.36-5.8,7.25,7.25,0,0,0-2.36-5.69q-2.37-2.1-7.11-2.1H335.23l6.8-6.95ZM359.9,64.92,346.61,45.44h16.11l13.37,19.48Z" transform="translate(0 -5.04)"/><path class="cls-2" d="M77.53,97.51v-17h-6.7V77.3H88v3.18h-6.7v17Z" transform="translate(0 -5.04)"/><path class="cls-2" d="M94.56,94.34H106v3.17H90.81V77.3h14.76v3.18h-11Zm-.28-8.64h10v3.09h-10Z" transform="translate(0 -5.04)"/><path class="cls-2" d="M107.33,97.51l9.09-20.21h3.7l9.13,20.21h-4l-7.8-18.22H119l-7.82,18.22Zm4.19-4.67,1-3h10.89l1,3Z" transform="translate(0 -5.04)"/><path class="cls-2" d="M141.14,97.8a11.74,11.74,0,0,1-4.3-.76,10.12,10.12,0,0,1-5.69-5.48,11.06,11.06,0,0,1,0-8.31A10,10,0,0,1,133.43,80a10.19,10.19,0,0,1,3.44-2.18,12.45,12.45,0,0,1,8.83.08,8.94,8.94,0,0,1,3.47,2.53l-2.43,2.28a7.47,7.47,0,0,0-2.48-1.77,7.13,7.13,0,0,0-2.92-.6,8,8,0,0,0-2.9.52,6.85,6.85,0,0,0-2.28,1.48,6.75,6.75,0,0,0-1.51,2.25,7.71,7.71,0,0,0,0,5.72A6.71,6.71,0,0,0,138.44,94a7.79,7.79,0,0,0,2.9.52,7.29,7.29,0,0,0,2.92-.59,7.46,7.46,0,0,0,2.48-1.81l2.43,2.29a9.17,9.17,0,0,1-3.47,2.54A11.69,11.69,0,0,1,141.14,97.8Z" transform="translate(0 -5.04)"/><path class="cls-2" d="M156.53,97.51h-3.75V77.3h3.75Zm10.74-8.66h-11v-3.2h11ZM167,77.3h3.72V97.51H167Z" transform="translate(0 -5.04)"/><path class="cls-2" d="M179.92,94.34h11.41v3.17H176.17V77.3h14.76v3.18h-11Zm-.29-8.64h10.05v3.09H179.63Z" transform="translate(0 -5.04)"/><path class="cls-2" d="M195.55,97.51V77.3h8.31a11.29,11.29,0,0,1,4.61.85,6.63,6.63,0,0,1,3,2.47,7,7,0,0,1,1,3.87,6.48,6.48,0,0,1-4,6.27,11.29,11.29,0,0,1-4.61.86h-6.21L199.3,90v7.56Zm3.75-7.16-1.65-1.82h6a5.62,5.62,0,0,0,3.74-1.07,4.14,4.14,0,0,0,0-5.93,5.73,5.73,0,0,0-3.74-1h-6l1.65-1.85Zm9.47,7.16-5.11-7.33h4l5.14,7.33Z" transform="translate(0 -5.04)"/><path class="cls-2" d="M222.92,97.8a14.68,14.68,0,0,1-4.52-.68A10.31,10.31,0,0,1,215,95.38l1.3-2.92a10.36,10.36,0,0,0,3,1.59,11,11,0,0,0,3.67.63,8,8,0,0,0,2.57-.34,3.07,3.07,0,0,0,1.44-.94,2.13,2.13,0,0,0,.47-1.34,1.86,1.86,0,0,0-.67-1.49,4.9,4.9,0,0,0-1.72-.9q-1-.33-2.34-.6c-.85-.19-1.71-.41-2.57-.68a11.37,11.37,0,0,1-2.35-1A4.88,4.88,0,0,1,216,85.7a5,5,0,0,1-.65-2.65,5.52,5.52,0,0,1,.88-3,6.1,6.1,0,0,1,2.69-2.2,11.21,11.21,0,0,1,4.58-.82,14.83,14.83,0,0,1,3.61.46,10.36,10.36,0,0,1,3.11,1.33l-1.18,2.92a11.06,11.06,0,0,0-2.8-1.2,10.63,10.63,0,0,0-2.77-.39,7.09,7.09,0,0,0-2.51.38,3,3,0,0,0-1.43,1,2.29,2.29,0,0,0-.45,1.37,1.89,1.89,0,0,0,.65,1.49,4.47,4.47,0,0,0,1.7.88c.7.21,1.49.42,2.36.61s1.72.42,2.57.68a10.86,10.86,0,0,1,2.33,1,4.83,4.83,0,0,1,1.72,1.64,4.78,4.78,0,0,1,.65,2.62,5.38,5.38,0,0,1-.88,3,6.07,6.07,0,0,1-2.7,2.2A11.12,11.12,0,0,1,222.92,97.8Z" transform="translate(0 -5.04)"/><path class="cls-2" d="M242.76,97.51V77.3h3.09l12.67,15.59H257V77.3h3.7V97.51H257.6L245,81.92h1.53V97.51Z" transform="translate(0 -5.04)"/><path class="cls-2" d="M269.9,94.34h11.41v3.17H266.15V77.3H280.9v3.18h-11Zm-.29-8.64h10.05v3.09H269.61Z" transform="translate(0 -5.04)"/><path class="cls-2" d="M282.67,97.51l9.09-20.21h3.7l9.12,20.21h-3.95l-7.8-18.22h1.5l-7.82,18.22Zm4.18-4.67,1-3h10.89l1,3Z" transform="translate(0 -5.04)"/><path class="cls-2" d="M307.12,97.51V77.3h8.32a11.29,11.29,0,0,1,4.61.85,6.63,6.63,0,0,1,3,2.47,7,7,0,0,1,1,3.87,6.46,6.46,0,0,1-4,6.27,11.29,11.29,0,0,1-4.61.86h-6.21L310.88,90v7.56Zm3.76-7.16-1.65-1.82h6A5.62,5.62,0,0,0,319,87.46a4.14,4.14,0,0,0,0-5.93,5.73,5.73,0,0,0-3.74-1h-6l1.65-1.85Zm9.47,7.16-5.11-7.33h4l5.14,7.33Z" transform="translate(0 -5.04)"/><path class="cls-2" d="M336.17,97.51V77.3h3.09l8.84,14.76h-1.62l8.69-14.76h3.09l.06,20.21h-3.61V82.87h.72L348.1,95.23h-1.71l-7.5-12.36h.86V97.51Z" transform="translate(0 -5.04)"/><path class="cls-2" d="M367.5,94.34h11.41v3.17H363.75V77.3h14.76v3.18h-11Zm-.29-8.64h10.05v3.09H367.21Z" transform="translate(0 -5.04)"/><path class="cls-1" d="M16.79,102.14V98.83h6.65v3.31Z" transform="translate(0 -5.04)"/><path class="cls-1" d="M26.86,102.14V98.83h6.65v3.31Z" transform="translate(0 -5.04)"/><path class="cls-1" d="M10.14,102.14V98.83h3.23v3.31Z" transform="translate(0 -5.04)"/><path class="cls-1" d="M36.93,102.14V98.86h3.23v3.28Z" transform="translate(0 -5.04)"/><path class="cls-2" d="M40.23,95.4H37c0-.35-.05-.68-.05-1q0-30.9,0-61.8a1.3,1.3,0,0,1,.77-1.4,4.92,4.92,0,0,0,2.43-5.57,5,5,0,0,0-9.73-.11,4.94,4.94,0,0,0,2.37,5.67,1.33,1.33,0,0,1,.81,1.38q0,30.9,0,61.8v1.06H26.89c0-.35-.05-.68-.05-1q0-20.91,0-41.81a1.24,1.24,0,0,1,.74-1.32A4.91,4.91,0,0,0,30,45.63a5,5,0,0,0-9.73,0,5,5,0,0,0,2.53,5.69,1,1,0,0,1,.66,1q0,21.28,0,42.56c0,.16,0,.31-.05.53H16.82c0-.35-.05-.65-.05-1,0-7.27,0-14.53,0-21.8a1.26,1.26,0,0,1,.78-1.3,4.91,4.91,0,0,0,2.39-5.66,5,5,0,0,0-9.72.07,5,5,0,0,0,2.48,5.64c.44.24.72.45.72,1,0,7.42,0,14.85,0,22.27,0,.22,0,.43-.06.7H10.06c0-.49,0-1,0-1.41a11.21,11.21,0,0,0-4.43-9.4A5.72,5.72,0,0,1,3.82,77.7Q12.24,54,20.68,30.36c2.05-5.76,4.06-11.55,6.18-17.29A12.19,12.19,0,0,1,45.72,7.55a12.54,12.54,0,0,1,2.86,16.17,16.71,16.71,0,0,1-2.4,3.15,8.44,8.44,0,0,0-2.3,8.18c1,4.4,2,8.8,2.72,13.25a34.43,34.43,0,0,1-3.28,20.45,30,30,0,0,0-3.1,13.71c.06,3.92,0,7.84,0,11.76Z" transform="translate(0 -5.04)"/><path class="cls-1" d="M16.93,30.89c-.76-.38-1.43-.68-2.06-1a2.5,2.5,0,0,1-1.32-3.11q1.06-3.37,2.24-6.72a2.13,2.13,0,0,1,2.52-1.51c.9.14,1.78.41,2.79.65Z" transform="translate(0 -5.04)"/><path class="cls-1" d="M14,39.16,9.83,50.8a17,17,0,0,1-2.16-1.19,2.39,2.39,0,0,1-.83-2.8c.72-2.22,1.45-4.44,2.21-6.64a2.21,2.21,0,0,1,2.69-1.54C12.45,38.75,13.15,39,14,39.16Z" transform="translate(0 -5.04)"/><path class="cls-1" d="M2.75,70.67c-.5-.24-.87-.41-1.24-.6A2.59,2.59,0,0,1,.16,66.8c.69-2.19,1.43-4.37,2.19-6.54A2.2,2.2,0,0,1,5,58.71c.59.1,1.16.28,1.83.44Z" transform="translate(0 -5.04)"/></g></g></svg>